{
    "asset" : {
        "generator" : "Khronos glTF Blender I/O v1.8.19",
        "version" : "2.0"
    },
    "scene" : 0,
    "scenes" : [
        {
            "name" : "Scene",
            "nodes" : [
                0
            ]
        }
    ],
    "nodes" : [
        {
            "mesh" : 0,
            "name" : "Henri.gltf",
            "rotation" : [
                1,
                0,
                0,
                -4.371138828673793e-08
            ],
            "scale" : [
                0.004999999888241291,
                0.004999999888241291,
                0.004999999888241291
            ]
        }
    ],
    "meshes" : [
        {
            "name" : "Henri.gltf",
            "primitives" : [
                {
                    "attributes" : {
                        "POSITION" : 0,
                        "NORMAL" : 1
                    },
                    "indices" : 2
                }
            ]
        }
    ],
    "accessors" : [
        {
            "bufferView" : 0,
            "componentType" : 5126,
            "count" : 29506,
            "max" : [
                678.797607421875,
                -0.2473369985818863,
                169.64666748046875
            ],
            "min" : [
                -679.0042114257812,
                -1930.3768310546875,
                -162.96749877929688
            ],
            "type" : "VEC3"
        },
        {
            "bufferView" : 1,
            "componentType" : 5126,
            "count" : 29506,
            "type" : "VEC3"
        },
        {
            "bufferView" : 2,
            "componentType" : 5123,
            "count" : 29520,
            "type" : "SCALAR"
        }
    ],
    "bufferViews" : [
        {
            "buffer" : 0,
            "byteLength" : 354072,
            "byteOffset" : 0
        },
        {
            "buffer" : 0,
            "byteLength" : 354072,
            "byteOffset" : 354072
        },
        {
            "buffer" : 0,
            "byteLength" : 59040,
            "byteOffset" : 708144
        }
    ],
    "buffers" : [
        {
            "byteLength" : 767184,
            "uri" : "data:application/octet-stream;base64,"
        }
    ]
}
