{
    "asset" : {
        "generator" : "Khronos glTF Blender I/O v1.8.19",
        "version" : "2.0"
    },
    "scene" : 0,
    "scenes" : [
        {
            "name" : "Scene",
            "nodes" : [
                0
            ]
        }
    ],
    "nodes" : [
        {
            "mesh" : 0,
            "name" : "Henri_20000Poly",
            "rotation" : [
                0,
                0,
                -1,
                -4.371138828673793e-08
            ],
            "scale" : [
                0.004999999888241291,
                0.004999999888241291,
                0.004999999888241291
            ]
        }
    ],
    "meshes" : [
        {
            "name" : "Henri_20000Poly",
            "primitives" : [
                {
                    "attributes" : {
                        "POSITION" : 0,
                        "NORMAL" : 1
                    },
                    "indices" : 2
                }
            ]
        }
    ],
    "accessors" : [
        {
            "bufferView" : 0,
            "componentType" : 5126,
            "count" : 60000,
            "max" : [
                679.26806640625,
                -0.5799732804298401,
                170.1800994873047
            ],
            "min" : [
                -679.501953125,
                -1933.04931640625,
                -163.85377502441406
            ],
            "type" : "VEC3"
        },
        {
            "bufferView" : 1,
            "componentType" : 5126,
            "count" : 60000,
            "type" : "VEC3"
        },
        {
            "bufferView" : 2,
            "componentType" : 5123,
            "count" : 60000,
            "type" : "SCALAR"
        }
    ],
    "bufferViews" : [
        {
            "buffer" : 0,
            "byteLength" : 720000,
            "byteOffset" : 0
        },
        {
            "buffer" : 0,
            "byteLength" : 720000,
            "byteOffset" : 720000
        },
        {
            "buffer" : 0,
            "byteLength" : 120000,
            "byteOffset" : 1440000
        }
    ],
    "buffers" : [
        {
            "byteLength" : 1560000,
            "uri" : "data:application/octet-stream;base64,"
        }
    ]
}
