{
    "asset" : {
        "generator" : "Khronos glTF Blender I/O v1.8.19",
        "version" : "2.0"
    },
    "scene" : 0,
    "scenes" : [
        {
            "name" : "Scene",
            "nodes" : [
                0
            ]
        }
    ],
    "nodes" : [
        {
            "mesh" : 0,
            "name" : "D\u00e9bardeur",
            "rotation" : [
                0.7071068286895752,
                0,
                0,
                0.7071067094802856
            ],
            "scale" : [
                0.010000000707805157,
                0.010000000707805157,
                0.010000000707805157
            ]
        }
    ],
    "materials" : [
        {
            "doubleSided" : true,
            "name" : "FABRIC 1_FRONT_620447",
            "pbrMetallicRoughness" : {
                "metallicFactor" : 0,
                "roughnessFactor" : 0.4636862874031067
            }
        }
    ],
    "meshes" : [
        {
            "name" : "D\u00e9bardeur",
            "primitives" : [
                {
                    "attributes" : {
                        "POSITION" : 0,
                        "NORMAL" : 1,
                        "TEXCOORD_0" : 2
                    },
                    "indices" : 3,
                    "material" : 0
                }
            ]
        }
    ],
    "accessors" : [
        {
            "bufferView" : 0,
            "componentType" : 5126,
            "count" : 3098,
            "max" : [
                18.78055191040039,
                9.612502098083496,
                -98.9936752319336
            ],
            "min" : [
                -19.0859317779541,
                -19.813186645507812,
                -164.51441955566406
            ],
            "type" : "VEC3"
        },
        {
            "bufferView" : 1,
            "componentType" : 5126,
            "count" : 3098,
            "type" : "VEC3"
        },
        {
            "bufferView" : 2,
            "componentType" : 5126,
            "count" : 3098,
            "type" : "VEC2"
        },
        {
            "bufferView" : 3,
            "componentType" : 5123,
            "count" : 16101,
            "type" : "SCALAR"
        }
    ],
    "bufferViews" : [
        {
            "buffer" : 0,
            "byteLength" : 37176,
            "byteOffset" : 0
        },
        {
            "buffer" : 0,
            "byteLength" : 37176,
            "byteOffset" : 37176
        },
        {
            "buffer" : 0,
            "byteLength" : 24784,
            "byteOffset" : 74352
        },
        {
            "buffer" : 0,
            "byteLength" : 32202,
            "byteOffset" : 99136
        }
    ],
    "buffers" : [
        {
            "byteLength" : 131340,
            "uri" : "data:application/octet-stream;base64,"
        }
    ]
}
