{
    "asset" : {
        "generator" : "Khronos glTF Blender I/O v1.8.19",
        "version" : "2.0"
    },
    "scene" : 0,
    "scenes" : [
        {
            "name" : "Scene",
            "nodes" : [
                0
            ]
        }
    ],
    "nodes" : [
        {
            "mesh" : 0,
            "name" : "Pant",
            "rotation" : [
                0.7071068286895752,
                0,
                0,
                0.7071067094802856
            ]
        }
    ],
    "materials" : [
        {
            "doubleSided" : true,
            "name" : "FABRIC_1_FRONT_1499",
            "pbrMetallicRoughness" : {
                "metallicFactor" : 0,
                "roughnessFactor" : 0.8304027318954468
            }
        }
    ],
    "meshes" : [
        {
            "name" : "Pant",
            "primitives" : [
                {
                    "attributes" : {
                        "POSITION" : 0,
                        "NORMAL" : 1,
                        "TEXCOORD_0" : 2
                    },
                    "indices" : 3,
                    "material" : 0
                }
            ]
        }
    ],
    "accessors" : [
        {
            "bufferView" : 0,
            "componentType" : 5126,
            "count" : 4605,
            "max" : [
                182.8029327392578,
                91.44243621826172,
                -143.71188354492188
            ],
            "min" : [
                -183.30043029785156,
                -173.2625274658203,
                -1191.969482421875
            ],
            "type" : "VEC3"
        },
        {
            "bufferView" : 1,
            "componentType" : 5126,
            "count" : 4605,
            "type" : "VEC3"
        },
        {
            "bufferView" : 2,
            "componentType" : 5126,
            "count" : 4605,
            "type" : "VEC2"
        },
        {
            "bufferView" : 3,
            "componentType" : 5123,
            "count" : 26052,
            "type" : "SCALAR"
        }
    ],
    "bufferViews" : [
        {
            "buffer" : 0,
            "byteLength" : 55260,
            "byteOffset" : 0
        },
        {
            "buffer" : 0,
            "byteLength" : 55260,
            "byteOffset" : 55260
        },
        {
            "buffer" : 0,
            "byteLength" : 36840,
            "byteOffset" : 110520
        },
        {
            "buffer" : 0,
            "byteLength" : 52104,
            "byteOffset" : 147360
        }
    ],
    "buffers" : [
        {
            "byteLength" : 199464,
            "uri" : "data:application/octet-stream;base64,"
        }
    ]
}
