{
    "asset" : {
        "generator" : "Khronos glTF Blender I/O v1.8.19",
        "version" : "2.0"
    },
    "scene" : 0,
    "scenes" : [
        {
            "name" : "Scene",
            "nodes" : [
                0
            ]
        }
    ],
    "nodes" : [
        {
            "mesh" : 0,
            "name" : "Shirt",
            "rotation" : [
                0.7071068286895752,
                0,
                0,
                0.7071067094802856
            ],
            "scale" : [
                0.010000000707805157,
                0.010000000707805157,
                0.010000000707805157
            ]
        }
    ],
    "materials" : [
        {
            "doubleSided" : true,
            "name" : "Body_B_FRONT_173160",
            "pbrMetallicRoughness" : {
                "metallicFactor" : 0,
                "roughnessFactor" : 0.4636862874031067
            }
        },
        {
            "doubleSided" : true,
            "name" : "Body_F_FRONT_175731",
            "pbrMetallicRoughness" : {
                "metallicFactor" : 0,
                "roughnessFactor" : 0.4636862874031067
            }
        },
        {
            "doubleSided" : true,
            "name" : "Material647667",
            "pbrMetallicRoughness" : {
                "metallicFactor" : 0,
                "roughnessFactor" : 0.4636862874031067
            }
        },
        {
            "doubleSided" : true,
            "name" : "Collar_FRONT_182213",
            "pbrMetallicRoughness" : {
                "metallicFactor" : 0,
                "roughnessFactor" : 0.4636862874031067
            }
        },
        {
            "doubleSided" : true,
            "name" : "Collar_Stand_FRONT_182208",
            "pbrMetallicRoughness" : {
                "metallicFactor" : 0,
                "roughnessFactor" : 0.4636862874031067
            }
        },
        {
            "doubleSided" : true,
            "name" : "Material637901",
            "pbrMetallicRoughness" : {
                "metallicFactor" : 0,
                "roughnessFactor" : 0.4636862874031067
            }
        },
        {
            "doubleSided" : true,
            "name" : "Material637918",
            "pbrMetallicRoughness" : {
                "metallicFactor" : 0,
                "roughnessFactor" : 0.4636862874031067
            }
        },
        {
            "doubleSided" : true,
            "name" : "Sleeve_Placket_FRONT_203062",
            "pbrMetallicRoughness" : {
                "metallicFactor" : 0,
                "roughnessFactor" : 0.4636862874031067
            }
        },
        {
            "doubleSided" : true,
            "name" : "Sleeves_FRONT_203057",
            "pbrMetallicRoughness" : {
                "metallicFactor" : 0,
                "roughnessFactor" : 0.4636862874031067
            }
        },
        {
            "doubleSided" : true,
            "name" : "Material643570",
            "pbrMetallicRoughness" : {
                "metallicFactor" : 0,
                "roughnessFactor" : 0.4636862874031067
            }
        },
        {
            "doubleSided" : true,
            "name" : "Cuffs_FRONT_215072",
            "pbrMetallicRoughness" : {
                "metallicFactor" : 0,
                "roughnessFactor" : 0.4636862874031067
            }
        },
        {
            "doubleSided" : true,
            "name" : "Material655120",
            "pbrMetallicRoughness" : {
                "metallicFactor" : 0,
                "roughnessFactor" : 0.4636862874031067
            }
        }
    ],
    "meshes" : [
        {
            "name" : "Shirt",
            "primitives" : [
                {
                    "attributes" : {
                        "POSITION" : 0,
                        "NORMAL" : 1,
                        "TEXCOORD_0" : 2
                    },
                    "indices" : 3,
                    "material" : 0
                },
                {
                    "attributes" : {
                        "POSITION" : 4,
                        "NORMAL" : 5,
                        "TEXCOORD_0" : 6
                    },
                    "indices" : 7,
                    "material" : 1
                },
                {
                    "attributes" : {
                        "POSITION" : 8,
                        "NORMAL" : 9,
                        "TEXCOORD_0" : 10
                    },
                    "indices" : 11,
                    "material" : 2
                },
                {
                    "attributes" : {
                        "POSITION" : 12,
                        "NORMAL" : 13,
                        "TEXCOORD_0" : 14
                    },
                    "indices" : 15,
                    "material" : 3
                },
                {
                    "attributes" : {
                        "POSITION" : 16,
                        "NORMAL" : 17,
                        "TEXCOORD_0" : 18
                    },
                    "indices" : 19,
                    "material" : 4
                },
                {
                    "attributes" : {
                        "POSITION" : 20,
                        "NORMAL" : 21,
                        "TEXCOORD_0" : 22
                    },
                    "indices" : 23,
                    "material" : 5
                },
                {
                    "attributes" : {
                        "POSITION" : 24,
                        "NORMAL" : 25,
                        "TEXCOORD_0" : 26
                    },
                    "indices" : 27,
                    "material" : 6
                },
                {
                    "attributes" : {
                        "POSITION" : 28,
                        "NORMAL" : 29,
                        "TEXCOORD_0" : 30
                    },
                    "indices" : 31,
                    "material" : 7
                },
                {
                    "attributes" : {
                        "POSITION" : 32,
                        "NORMAL" : 33,
                        "TEXCOORD_0" : 34
                    },
                    "indices" : 35,
                    "material" : 8
                },
                {
                    "attributes" : {
                        "POSITION" : 36,
                        "NORMAL" : 37,
                        "TEXCOORD_0" : 38
                    },
                    "indices" : 23,
                    "material" : 9
                },
                {
                    "attributes" : {
                        "POSITION" : 39,
                        "NORMAL" : 40,
                        "TEXCOORD_0" : 41
                    },
                    "indices" : 42,
                    "material" : 10
                },
                {
                    "attributes" : {
                        "POSITION" : 43,
                        "NORMAL" : 44,
                        "TEXCOORD_0" : 45
                    },
                    "indices" : 23,
                    "material" : 11
                }
            ]
        }
    ],
    "accessors" : [
        {
            "bufferView" : 0,
            "componentType" : 5126,
            "count" : 508,
            "max" : [
                22.151044845581055,
                -1.5473178625106812,
                -91.78202819824219
            ],
            "min" : [
                -21.933664321899414,
                -19.41170310974121,
                -166.1114501953125
            ],
            "type" : "VEC3"
        },
        {
            "bufferView" : 1,
            "componentType" : 5126,
            "count" : 508,
            "type" : "VEC3"
        },
        {
            "bufferView" : 2,
            "componentType" : 5126,
            "count" : 508,
            "type" : "VEC2"
        },
        {
            "bufferView" : 3,
            "componentType" : 5123,
            "count" : 2712,
            "type" : "SCALAR"
        },
        {
            "bufferView" : 4,
            "componentType" : 5126,
            "count" : 492,
            "max" : [
                22.01043128967285,
                10.656283378601074,
                -95.01752471923828
            ],
            "min" : [
                -21.933664321899414,
                -6.2499918937683105,
                -165.2248992919922
            ],
            "type" : "VEC3"
        },
        {
            "bufferView" : 5,
            "componentType" : 5126,
            "count" : 492,
            "type" : "VEC3"
        },
        {
            "bufferView" : 6,
            "componentType" : 5126,
            "count" : 492,
            "type" : "VEC2"
        },
        {
            "bufferView" : 7,
            "componentType" : 5123,
            "count" : 2598,
            "type" : "SCALAR"
        },
        {
            "bufferView" : 8,
            "componentType" : 5126,
            "count" : 4830,
            "max" : [
                0.5410276055335999,
                10.101275444030762,
                -105.16182708740234
            ],
            "min" : [
                -0.6670458316802979,
                2.2898640632629395,
                -157.61643981933594
            ],
            "type" : "VEC3"
        },
        {
            "bufferView" : 9,
            "componentType" : 5126,
            "count" : 4830,
            "type" : "VEC3"
        },
        {
            "bufferView" : 10,
            "componentType" : 5126,
            "count" : 4830,
            "type" : "VEC2"
        },
        {
            "bufferView" : 11,
            "componentType" : 5123,
            "count" : 22428,
            "type" : "SCALAR"
        },
        {
            "bufferView" : 12,
            "componentType" : 5126,
            "count" : 51,
            "max" : [
                8.927287101745605,
                1.9787601232528687,
                -158.16587829589844
            ],
            "min" : [
                -8.735553741455078,
                -12.13449764251709,
                -169.4261016845703
            ],
            "type" : "VEC3"
        },
        {
            "bufferView" : 13,
            "componentType" : 5126,
            "count" : 51,
            "type" : "VEC3"
        },
        {
            "bufferView" : 14,
            "componentType" : 5126,
            "count" : 51,
            "type" : "VEC2"
        },
        {
            "bufferView" : 15,
            "componentType" : 5123,
            "count" : 210,
            "type" : "SCALAR"
        },
        {
            "bufferView" : 16,
            "componentType" : 5126,
            "count" : 40,
            "max" : [
                8.505486488342285,
                1.2265161275863647,
                -160.90036010742188
            ],
            "min" : [
                -8.290351867675781,
                -12.053083419799805,
                -168.7587432861328
            ],
            "type" : "VEC3"
        },
        {
            "bufferView" : 17,
            "componentType" : 5126,
            "count" : 40,
            "type" : "VEC3"
        },
        {
            "bufferView" : 18,
            "componentType" : 5126,
            "count" : 40,
            "type" : "VEC2"
        },
        {
            "bufferView" : 19,
            "componentType" : 5123,
            "count" : 114,
            "type" : "SCALAR"
        },
        {
            "bufferView" : 20,
            "componentType" : 5126,
            "count" : 1610,
            "max" : [
                4.862035751342773,
                1.9713859558105469,
                -159.1969757080078
            ],
            "min" : [
                -4.722710609436035,
                1.2062994241714478,
                -160.22447204589844
            ],
            "type" : "VEC3"
        },
        {
            "bufferView" : 21,
            "componentType" : 5126,
            "count" : 1610,
            "type" : "VEC3"
        },
        {
            "bufferView" : 22,
            "componentType" : 5126,
            "count" : 1610,
            "type" : "VEC2"
        },
        {
            "bufferView" : 23,
            "componentType" : 5123,
            "count" : 7476,
            "type" : "SCALAR"
        },
        {
            "bufferView" : 24,
            "componentType" : 5126,
            "count" : 805,
            "max" : [
                0.620386004447937,
                1.5090011358261108,
                -161.49229431152344
            ],
            "min" : [
                -0.3967486023902893,
                1.0002694129943848,
                -162.5240478515625
            ],
            "type" : "VEC3"
        },
        {
            "bufferView" : 25,
            "componentType" : 5126,
            "count" : 805,
            "type" : "VEC3"
        },
        {
            "bufferView" : 26,
            "componentType" : 5126,
            "count" : 805,
            "type" : "VEC2"
        },
        {
            "bufferView" : 27,
            "componentType" : 5123,
            "count" : 3738,
            "type" : "SCALAR"
        },
        {
            "bufferView" : 28,
            "componentType" : 5126,
            "count" : 32,
            "max" : [
                30.308866500854492,
                -3.7132859230041504,
                -102.83968353271484
            ],
            "min" : [
                -31.066831588745117,
                -8.141633987426758,
                -115.7177963256836
            ],
            "type" : "VEC3"
        },
        {
            "bufferView" : 29,
            "componentType" : 5126,
            "count" : 32,
            "type" : "VEC3"
        },
        {
            "bufferView" : 30,
            "componentType" : 5126,
            "count" : 32,
            "type" : "VEC2"
        },
        {
            "bufferView" : 31,
            "componentType" : 5123,
            "count" : 102,
            "type" : "SCALAR"
        },
        {
            "bufferView" : 32,
            "componentType" : 5126,
            "count" : 477,
            "max" : [
                32.404579162597656,
                2.83689546585083,
                -103.02227020263672
            ],
            "min" : [
                -32.64931106567383,
                -13.635790824890137,
                -158.45005798339844
            ],
            "type" : "VEC3"
        },
        {
            "bufferView" : 33,
            "componentType" : 5126,
            "count" : 477,
            "type" : "VEC3"
        },
        {
            "bufferView" : 34,
            "componentType" : 5126,
            "count" : 477,
            "type" : "VEC2"
        },
        {
            "bufferView" : 35,
            "componentType" : 5123,
            "count" : 2496,
            "type" : "SCALAR"
        },
        {
            "bufferView" : 36,
            "componentType" : 5126,
            "count" : 1610,
            "max" : [
                30.089258193969727,
                -5.368139266967773,
                -106.87306213378906
            ],
            "min" : [
                -30.776208877563477,
                -6.736900329589844,
                -108.01195526123047
            ],
            "type" : "VEC3"
        },
        {
            "bufferView" : 37,
            "componentType" : 5126,
            "count" : 1610,
            "type" : "VEC3"
        },
        {
            "bufferView" : 38,
            "componentType" : 5126,
            "count" : 1610,
            "type" : "VEC2"
        },
        {
            "bufferView" : 39,
            "componentType" : 5126,
            "count" : 70,
            "max" : [
                31.181623458862305,
                5.027627944946289,
                -97.33074951171875
            ],
            "min" : [
                -31.93479347229004,
                -5.7428059577941895,
                -105.58910369873047
            ],
            "type" : "VEC3"
        },
        {
            "bufferView" : 40,
            "componentType" : 5126,
            "count" : 70,
            "type" : "VEC3"
        },
        {
            "bufferView" : 41,
            "componentType" : 5126,
            "count" : 70,
            "type" : "VEC2"
        },
        {
            "bufferView" : 42,
            "componentType" : 5123,
            "count" : 264,
            "type" : "SCALAR"
        },
        {
            "bufferView" : 43,
            "componentType" : 5126,
            "count" : 1610,
            "max" : [
                30.09320640563965,
                -3.1870968341827393,
                -99.66768646240234
            ],
            "min" : [
                -31.061872482299805,
                -4.328840732574463,
                -100.7160873413086
            ],
            "type" : "VEC3"
        },
        {
            "bufferView" : 44,
            "componentType" : 5126,
            "count" : 1610,
            "type" : "VEC3"
        },
        {
            "bufferView" : 45,
            "componentType" : 5126,
            "count" : 1610,
            "type" : "VEC2"
        }
    ],
    "bufferViews" : [
        {
            "buffer" : 0,
            "byteLength" : 6096,
            "byteOffset" : 0
        },
        {
            "buffer" : 0,
            "byteLength" : 6096,
            "byteOffset" : 6096
        },
        {
            "buffer" : 0,
            "byteLength" : 4064,
            "byteOffset" : 12192
        },
        {
            "buffer" : 0,
            "byteLength" : 5424,
            "byteOffset" : 16256
        },
        {
            "buffer" : 0,
            "byteLength" : 5904,
            "byteOffset" : 21680
        },
        {
            "buffer" : 0,
            "byteLength" : 5904,
            "byteOffset" : 27584
        },
        {
            "buffer" : 0,
            "byteLength" : 3936,
            "byteOffset" : 33488
        },
        {
            "buffer" : 0,
            "byteLength" : 5196,
            "byteOffset" : 37424
        },
        {
            "buffer" : 0,
            "byteLength" : 57960,
            "byteOffset" : 42620
        },
        {
            "buffer" : 0,
            "byteLength" : 57960,
            "byteOffset" : 100580
        },
        {
            "buffer" : 0,
            "byteLength" : 38640,
            "byteOffset" : 158540
        },
        {
            "buffer" : 0,
            "byteLength" : 44856,
            "byteOffset" : 197180
        },
        {
            "buffer" : 0,
            "byteLength" : 612,
            "byteOffset" : 242036
        },
        {
            "buffer" : 0,
            "byteLength" : 612,
            "byteOffset" : 242648
        },
        {
            "buffer" : 0,
            "byteLength" : 408,
            "byteOffset" : 243260
        },
        {
            "buffer" : 0,
            "byteLength" : 420,
            "byteOffset" : 243668
        },
        {
            "buffer" : 0,
            "byteLength" : 480,
            "byteOffset" : 244088
        },
        {
            "buffer" : 0,
            "byteLength" : 480,
            "byteOffset" : 244568
        },
        {
            "buffer" : 0,
            "byteLength" : 320,
            "byteOffset" : 245048
        },
        {
            "buffer" : 0,
            "byteLength" : 228,
            "byteOffset" : 245368
        },
        {
            "buffer" : 0,
            "byteLength" : 19320,
            "byteOffset" : 245596
        },
        {
            "buffer" : 0,
            "byteLength" : 19320,
            "byteOffset" : 264916
        },
        {
            "buffer" : 0,
            "byteLength" : 12880,
            "byteOffset" : 284236
        },
        {
            "buffer" : 0,
            "byteLength" : 14952,
            "byteOffset" : 297116
        },
        {
            "buffer" : 0,
            "byteLength" : 9660,
            "byteOffset" : 312068
        },
        {
            "buffer" : 0,
            "byteLength" : 9660,
            "byteOffset" : 321728
        },
        {
            "buffer" : 0,
            "byteLength" : 6440,
            "byteOffset" : 331388
        },
        {
            "buffer" : 0,
            "byteLength" : 7476,
            "byteOffset" : 337828
        },
        {
            "buffer" : 0,
            "byteLength" : 384,
            "byteOffset" : 345304
        },
        {
            "buffer" : 0,
            "byteLength" : 384,
            "byteOffset" : 345688
        },
        {
            "buffer" : 0,
            "byteLength" : 256,
            "byteOffset" : 346072
        },
        {
            "buffer" : 0,
            "byteLength" : 204,
            "byteOffset" : 346328
        },
        {
            "buffer" : 0,
            "byteLength" : 5724,
            "byteOffset" : 346532
        },
        {
            "buffer" : 0,
            "byteLength" : 5724,
            "byteOffset" : 352256
        },
        {
            "buffer" : 0,
            "byteLength" : 3816,
            "byteOffset" : 357980
        },
        {
            "buffer" : 0,
            "byteLength" : 4992,
            "byteOffset" : 361796
        },
        {
            "buffer" : 0,
            "byteLength" : 19320,
            "byteOffset" : 366788
        },
        {
            "buffer" : 0,
            "byteLength" : 19320,
            "byteOffset" : 386108
        },
        {
            "buffer" : 0,
            "byteLength" : 12880,
            "byteOffset" : 405428
        },
        {
            "buffer" : 0,
            "byteLength" : 840,
            "byteOffset" : 418308
        },
        {
            "buffer" : 0,
            "byteLength" : 840,
            "byteOffset" : 419148
        },
        {
            "buffer" : 0,
            "byteLength" : 560,
            "byteOffset" : 419988
        },
        {
            "buffer" : 0,
            "byteLength" : 528,
            "byteOffset" : 420548
        },
        {
            "buffer" : 0,
            "byteLength" : 19320,
            "byteOffset" : 421076
        },
        {
            "buffer" : 0,
            "byteLength" : 19320,
            "byteOffset" : 440396
        },
        {
            "buffer" : 0,
            "byteLength" : 12880,
            "byteOffset" : 459716
        }
    ],
    "buffers" : [
        {
            "byteLength" : 472596,
            "uri" : "data:application/octet-stream;base64,"
        }
    ]
}
