{
    "asset" : {
        "generator" : "Khronos glTF Blender I/O v1.8.19",
        "version" : "2.0"
    },
    "scene" : 0,
    "scenes" : [
        {
            "name" : "Scene",
            "nodes" : [
                0,
                1,
                2,
                3
            ]
        }
    ],
    "nodes" : [
        {
            "mesh" : 0,
            "name" : "TShirt",
            "rotation" : [
                0.7071068286895752,
                0,
                0,
                0.7071067094802856
            ]
        },
        {
            "mesh" : 1,
            "name" : "TShirt.001",
            "rotation" : [
                0.7071068286895752,
                0,
                0,
                0.7071067094802856
            ]
        },
        {
            "name" : "TShirt.002",
            "rotation" : [
                0.7071068286895752,
                0,
                0,
                0.7071067094802856
            ]
        },
        {
            "mesh" : 2,
            "name" : "TShirt.003",
            "rotation" : [
                0.7071068286895752,
                0,
                0,
                0.7071067094802856
            ],
            "scale" : [
                0.010000000707805157,
                0.010000000707805157,
                0.010000000707805157
            ]
        }
    ],
    "materials" : [
        {
            "doubleSided" : true,
            "name" : "FABRIC_1_FRONT_1499",
            "pbrMetallicRoughness" : {
                "metallicFactor" : 0,
                "roughnessFactor" : 0.8304027318954468
            }
        },
        {
            "doubleSided" : true,
            "name" : "FABRIC_1_FRONT_1499.001",
            "pbrMetallicRoughness" : {
                "metallicFactor" : 0,
                "roughnessFactor" : 0.8304027318954468
            }
        },
        {
            "doubleSided" : true,
            "name" : "FABRIC 1_FRONT_1499",
            "pbrMetallicRoughness" : {
                "metallicFactor" : 0,
                "roughnessFactor" : 0.4636862874031067
            }
        }
    ],
    "meshes" : [
        {
            "name" : "TShirt",
            "primitives" : [
                {
                    "attributes" : {
                        "POSITION" : 0,
                        "NORMAL" : 1,
                        "TEXCOORD_0" : 2
                    },
                    "indices" : 3,
                    "material" : 0
                }
            ]
        },
        {
            "name" : "TShirt.001",
            "primitives" : [
                {
                    "attributes" : {
                        "POSITION" : 4,
                        "NORMAL" : 5,
                        "TEXCOORD_0" : 6
                    },
                    "indices" : 3,
                    "material" : 1
                }
            ]
        },
        {
            "name" : "TShirt.003",
            "primitives" : [
                {
                    "attributes" : {
                        "POSITION" : 7,
                        "NORMAL" : 8,
                        "TEXCOORD_0" : 9
                    },
                    "indices" : 10,
                    "material" : 2
                }
            ]
        }
    ],
    "accessors" : [
        {
            "bufferView" : 0,
            "componentType" : 5126,
            "count" : 3676,
            "max" : [
                384.7221374511719,
                101.59579467773438,
                -1025.43212890625
            ],
            "min" : [
                -381.24603271484375,
                -175.8697967529297,
                -1656.08447265625
            ],
            "type" : "VEC3"
        },
        {
            "bufferView" : 1,
            "componentType" : 5126,
            "count" : 3676,
            "type" : "VEC3"
        },
        {
            "bufferView" : 2,
            "componentType" : 5126,
            "count" : 3676,
            "type" : "VEC2"
        },
        {
            "bufferView" : 3,
            "componentType" : 5123,
            "count" : 20556,
            "type" : "SCALAR"
        },
        {
            "bufferView" : 4,
            "componentType" : 5126,
            "count" : 3676,
            "max" : [
                384.7221374511719,
                101.59579467773438,
                -1025.43212890625
            ],
            "min" : [
                -381.24603271484375,
                -175.8697967529297,
                -1656.08447265625
            ],
            "type" : "VEC3"
        },
        {
            "bufferView" : 5,
            "componentType" : 5126,
            "count" : 3676,
            "type" : "VEC3"
        },
        {
            "bufferView" : 6,
            "componentType" : 5126,
            "count" : 3676,
            "type" : "VEC2"
        },
        {
            "bufferView" : 7,
            "componentType" : 5126,
            "count" : 3676,
            "max" : [
                38.47221374511719,
                10.159579277038574,
                -102.543212890625
            ],
            "min" : [
                -38.124603271484375,
                -17.58698081970215,
                -165.6084442138672
            ],
            "type" : "VEC3"
        },
        {
            "bufferView" : 8,
            "componentType" : 5126,
            "count" : 3676,
            "type" : "VEC3"
        },
        {
            "bufferView" : 9,
            "componentType" : 5126,
            "count" : 3676,
            "type" : "VEC2"
        },
        {
            "bufferView" : 10,
            "componentType" : 5123,
            "count" : 20556,
            "type" : "SCALAR"
        }
    ],
    "bufferViews" : [
        {
            "buffer" : 0,
            "byteLength" : 44112,
            "byteOffset" : 0
        },
        {
            "buffer" : 0,
            "byteLength" : 44112,
            "byteOffset" : 44112
        },
        {
            "buffer" : 0,
            "byteLength" : 29408,
            "byteOffset" : 88224
        },
        {
            "buffer" : 0,
            "byteLength" : 41112,
            "byteOffset" : 117632
        },
        {
            "buffer" : 0,
            "byteLength" : 44112,
            "byteOffset" : 158744
        },
        {
            "buffer" : 0,
            "byteLength" : 44112,
            "byteOffset" : 202856
        },
        {
            "buffer" : 0,
            "byteLength" : 29408,
            "byteOffset" : 246968
        },
        {
            "buffer" : 0,
            "byteLength" : 44112,
            "byteOffset" : 276376
        },
        {
            "buffer" : 0,
            "byteLength" : 44112,
            "byteOffset" : 320488
        },
        {
            "buffer" : 0,
            "byteLength" : 29408,
            "byteOffset" : 364600
        },
        {
            "buffer" : 0,
            "byteLength" : 41112,
            "byteOffset" : 394008
        }
    ],
    "buffers" : [
        {
            "byteLength" : 435120,
            "uri" : "data:application/octet-stream;base64,"
        }
    ]
}
